<svg height="512" viewBox="0 0 64 64" width="512" xmlns="http://www.w3.org/2000/svg"><g id="Blue"><path d="m13.125 29h37.75l-.875 28h-36z" fill="#7cb8eb"/><path d="m60 57h-10l1-32h8z" fill="#cdeef6"/><path d="m4 57h10l-1-32h-8z" fill="#cdeef6"/><path d="m26 45h12v12h-12z" fill="#7cb8eb"/><path d="m49 57h12v4h-12z" fill="#cdeef6"/><path d="m49 21h12v4h-12z" fill="#7cb8eb"/><path d="m59 21h-8l1-4h6z" fill="#7cb8eb"/><path d="m52 13h6v4h-6z" fill="#7cb8eb"/><path d="m58 13h-6l1-4h4z" fill="#7cb8eb"/><path d="m24 57h16v4h-16z" fill="#cdeef6"/><path d="m34 57h-4v-6l2-2 2 2z" fill="#fff"/><path d="m42 57v-7l2-3 2 3v7h4v-8l-6-8-6 8v8z" fill="#cdeef6"/><path d="m54 28h2v2h-2z" fill="#4f83d1"/><path d="m54 32h2v2h-2z" fill="#4f83d1"/><path d="m54 36h2v2h-2z" fill="#4f83d1"/><path d="m40 57h9v4h-9z" fill="#cdeef6"/><path d="m50.125 53-.125 4h10l-.125-4z" fill="#7cb8eb"/><path d="m54 40h2v2h-2z" fill="#4f83d1"/><path d="m50 48h4v2h-4z" fill="#4f83d1"/><path d="m56 48h4v2h-4z" fill="#4f83d1"/><path d="m50 44h4v2h-4z" fill="#4f83d1"/><path d="m56 44h4v2h-4z" fill="#4f83d1"/><path d="m38 45h-12l2-4h8z" fill="#7cb8eb"/><path d="m28 37h8v4h-8z" fill="#cdeef6"/><path d="m36 37h-8l2-4h4z" fill="#7cb8eb"/><path d="m30 29h4v4h-4z" fill="#7cb8eb"/><path d="m40 37h4v4h-4z" fill="#cdeef6"/><path d="m44 37h4v4h-4z" fill="#cdeef6"/><path d="m40 37 2-6 2 6z" fill="#7cb8eb"/><path d="m36 37h4v4h-4z" fill="#cdeef6"/><path d="m36 37 2-6 2 6z" fill="#7cb8eb"/><path d="m44 37 2-6 2 6z" fill="#7cb8eb"/><path d="m42 31-2 6-2-6v-2h4z" fill="#cdeef6"/><path d="m26 31-2 6-2-6v-2h4z" fill="#cdeef6"/><path d="m46 31-2 6-2-6v-2h4z" fill="#cdeef6"/><path d="m40 29 2-5 2 5z" fill="#7cb8eb"/><path d="m44 29 2-5 2 5z" fill="#7cb8eb"/><path d="m26 25h12v4h-12z" fill="#7cb8eb"/><path d="m30 19h4a4 4 0 0 1 4 4v2a0 0 0 0 1 0 0h-12a0 0 0 0 1 0 0v-2a4 4 0 0 1 4-4z" fill="#7cb8eb"/><path d="m30 15h4v4h-4z" fill="#7cb8eb"/><path d="m34 15h-4l-2-4h8z" fill="#7cb8eb"/><path d="m34.031 11h-4l1-4h2z" fill="#7cb8eb"/><path d="m31 2h2v5h-2z" fill="#4f83d1"/><path d="m50.875 29h-4.875v2l2 6h2.625z" fill="#cdeef6"/><path d="m54 4h2v5h-2z" fill="#4f83d1"/><path d="m3 57h12v4h-12z" fill="#cdeef6" transform="matrix(-1 0 0 -1 18 118)"/><path d="m3 21h12v4h-12z" fill="#7cb8eb" transform="matrix(-1 0 0 -1 18 46)"/><path d="m5 21h8l-1-4h-6z" fill="#7cb8eb"/><path d="m6 13h6v4h-6z" fill="#7cb8eb" transform="matrix(-1 0 0 -1 18 30)"/><path d="m6 13h6l-1-4h-4z" fill="#7cb8eb"/><path d="m22 57v-7l-2-3-2 3v7h-4v-8l6-8 6 8v8z" fill="#cdeef6"/><path d="m8 28h2v2h-2z" fill="#4f83d1"/><path d="m8 32h2v2h-2z" fill="#4f83d1"/><path d="m8 36h2v2h-2z" fill="#4f83d1"/><path d="m15 57h9v4h-9z" fill="#cdeef6" transform="matrix(-1 0 0 -1 39 118)"/><path d="m13.875 53 .125 4h-10l.125-4z" fill="#7cb8eb"/><path d="m8 40h2v2h-2z" fill="#4f83d1"/><path d="m10 48h4v2h-4z" fill="#4f83d1"/><path d="m4 48h4v2h-4z" fill="#4f83d1"/><path d="m10 44h4v2h-4z" fill="#4f83d1"/><path d="m4 44h4v2h-4z" fill="#4f83d1"/><path d="m20 37h4v4h-4z" fill="#cdeef6" transform="matrix(-1 0 0 -1 44 78)"/><path d="m16 37h4v4h-4z" fill="#cdeef6" transform="matrix(-1 0 0 -1 36 78)"/><path d="m24 37-2-6-2 6z" fill="#7cb8eb"/><path d="m24 37h4v4h-4z" fill="#cdeef6" transform="matrix(-1 0 0 -1 52 78)"/><path d="m28 37-2-6-2 6z" fill="#7cb8eb"/><path d="m20 37-2-6-2 6z" fill="#7cb8eb"/><path d="m18 31 2 6 2-6v-2h-4z" fill="#cdeef6"/><path d="m24 29-2-5-2 5z" fill="#7cb8eb"/><path d="m20 29-2-5-2 5z" fill="#7cb8eb"/><path d="m13.125 29h4.875v2l-2 6h-2.625z" fill="#cdeef6"/><g fill="#4f83d1"><path d="m8 4h2v5h-2z"/><path d="m61 20h-1.219l-.781-3.123v-3.877a1.794 1.794 0 0 0 -.03-.242l-1-4a1 1 0 0 0 -.97-.758h-1v-4h-2v4h-1a1 1 0 0 0 -.97.758l-1 4a1.794 1.794 0 0 0 -.03.242v3.877l-.781 3.123h-1.219a1 1 0 0 0 -1 1v4a1 1 0 0 0 1 1h.968l-.062 2h-1.229l-1.748-4.371a1 1 0 0 0 -1.858 0l-1.071 2.678-1.071-2.678a1 1 0 0 0 -1.858 0l-1.748 4.371h-.323v-5a5.009 5.009 0 0 0 -4-4.9v-2.864l1.9-3.789a1 1 0 0 0 -.9-1.447h-1.188l-.812-3.242a1 1 0 0 0 -.969-.758h-.031v-4h-2v4.005a1 1 0 0 0 -.939.753l-.811 3.242h-1.25a1 1 0 0 0 -.895 1.447l1.895 3.789v2.864a5.009 5.009 0 0 0 -4 4.9v5h-.323l-1.748-4.371a1 1 0 0 0 -1.858 0l-1.071 2.678-1.071-2.678a1 1 0 0 0 -1.858 0l-1.748 4.371h-1.229l-.062-2h.968a1 1 0 0 0 1-1v-4a1 1 0 0 0 -1-1h-1.219l-.781-3.123v-3.877a1.794 1.794 0 0 0 -.03-.242l-1-4a1 1 0 0 0 -.97-.758h-1v-4h-2v4h-1a1 1 0 0 0 -.97.758l-1 4a1.794 1.794 0 0 0 -.03.242v3.877l-.781 3.123h-1.219a1 1 0 0 0 -1 1v4a1 1 0 0 0 1 1h.968l-.937 30h-.031a1 1 0 0 0 -1 1v4a1 1 0 0 0 1 1h58a1 1 0 0 0 1-1v-4a1 1 0 0 0 -1-1h-.031l-.937-30h.968a1 1 0 0 0 1-1v-4a1 1 0 0 0 -1-1zm-53.219-10h2.438l.5 2h-3.438zm-.781 4h4v2h-4zm-.219 4h4.438l.5 2h-5.438zm7.219 42h-10v-2h10zm-8.718-12 .062-2h2.656v-2h-2.593l.562-18h6.062l.562 18h-2.593v2h2.656l.062 2h-2.718v2h2.781l.062 2h-7.686l.062-2h2.781v-2zm7.624 6 .062 2h-7.936l.062-2zm1.094-30h-10v-2h10zm32 2.692.523 1.308h-1.046zm0 7.471.612 1.837h-1.224zm1 3.837v2h-2v-2zm-4-8h2v.837l-1 3-1-3zm-1-3.308.523 1.308h-1.046zm0 7.471.612 1.837h-1.224zm1 3.837v2h-2v-2zm-4.115 6.557-1.267-2.557h4.382l-3 4v-1a.978.978 0 0 0 -.115-.443zm.115-14.557h2v.837l-1 3-1-3zm-1 4.162.612 1.838h-1.225zm1 3.838v2h-2v-2zm-4.293 12.293-2-2a1 1 0 0 0 -1.414 0l-2 2a1 1 0 0 0 -.293.707v5h-2v-10h10v10h-2v-5a1 1 0 0 0 -.293-.707zm-1.707 1.121v4.586h-2v-4.586l1-1zm.382-17.414 1 2h-4.764l1-2zm-2.382-2v-2h2v2zm4 6v2h-6v-2zm.382 4 1 2h-8.764l1-2zm.433-7.607-.815-1.629v-2.764h2v.837zm-4.003-26.393h.438l.5 2h-1.438zm2.57 4-1 2h-2.764l-1-2zm-1.382 4v2h-2v-2zm-6 7a3 3 0 0 1 3-3h4a3 3 0 0 1 3 3v1h-10zm0 3h10v2h-10zm0 4h2v2.764l-.815 1.629-1.185-3.556zm-1 4.162.613 1.838h-1.225zm1 3.838v2h-2v-2zm-.618 4-1.267 2.557a.978.978 0 0 0 -.115.443v1l-3-4zm-3.382-12h2v.837l-1 3-1-3zm-1-3.308.523 1.308h-1.046zm0 7.471.612 1.837h-1.224zm1 3.837v2h-2v-2zm-4-8h2v.837l-1 3-1-3zm-1-3.308.523 1.308h-1.046zm0 7.471.612 1.837h-1.224zm1 3.837v2h-2v-2zm-4.843-8h2.843v.837l-1.721 5.163h-.935zm.25 8h.593v3a1 1 0 0 0 1 1h2l-3.33 4.44zm8.593 22h-7v-2h7zm-4-4v-5.7l1-1.5 1 1.5v5.7zm3.832-6.555-2-3a1.039 1.039 0 0 0 -1.664 0l-2 3a1.006 1.006 0 0 0 -.168.555v6h-2v-6.667l5-6.666 5 6.666v6.667h-2v-6a1.006 1.006 0 0 0 -.168-.555zm16.168 10.555h-14v-2h14zm9 0h-7v-2h7zm-5-4v-5.7l1-1.5 1 1.5v5.7zm6 0h-2v-6a1.006 1.006 0 0 0 -.168-.555l-2-3a1.039 1.039 0 0 0 -1.664 0l-2 3a1.006 1.006 0 0 0 -.168.555v6h-2v-6.667l5-6.666 5 6.666zm.33-9.56-3.33-4.44h2a1 1 0 0 0 1-1v-3h.593zm.326-10.44h-.935l-1.721-5.163v-.837h2.843zm4.125-26h2.438l.5 2h-3.438zm-.781 4h4v2h-4zm-.219 4h4.438l.5 2h-5.438zm7.219 42h-10v-2h10zm-8.718-12 .062-2h2.656v-2h-2.593l.562-18h6.062l.562 18h-2.593v2h2.656l.062 2h-2.718v2h2.781l.062 2h-7.686l.062-2h2.781v-2zm7.624 6 .062 2h-7.936l.062-2zm1.094-30h-10v-2h10z"/><path d="m54 28h2v2h-2z"/><path d="m54 32h2v2h-2z"/><path d="m54 36h2v2h-2z"/><path d="m54 40h2v2h-2z"/><path d="m8 28h2v2h-2z"/><path d="m8 32h2v2h-2z"/><path d="m8 36h2v2h-2z"/><path d="m8 40h2v2h-2z"/></g></g></svg>